<?xml version="1.0" encoding="utf-8"?>
<!-- Generator: Adobe Illustrator 19.1.0, SVG Export Plug-In . SVG Version: 6.00 Build 0)  -->
<svg version="1.1" xmlns="http://www.w3.org/2000/svg" xmlns:xlink="http://www.w3.org/1999/xlink" x="0px" y="0px" width="24px"
	 height="24px" viewBox="0 0 24 24" enable-background="new 0 0 24 24" xml:space="preserve">
<g id="Bounding_Boxes">
	<path fill="none" d="M0,0h24v24H0V0z"/>
</g>
<g id="Outline">
	<g id="ui_x5F_spec_x5F_header">
	</g>
	<g>
		<path d="M19,1H5C3.9,1,3.01,1.9,3.01,3L3,15.93c0,0.69,0.35,1.3,0.88,1.66L12,23l8.11-5.41c0.53-0.36,0.88-0.97,0.88-1.66L21,3
			C21,1.9,20.1,1,19,1z M12,20.6l-7-4.66V3h14v0l0,12.93L12,20.6z"/>
		<polygon points="9.99,13.18 7.41,10.59 6,12 10,16 18,8 16.58,6.58 		"/>
	</g>
</g>
</svg>
