<?xml version="1.0" standalone="no"?><!DOCTYPE svg PUBLIC "-//W3C//DTD SVG 1.1//EN" "http://www.w3.org/Graphics/SVG/1.1/DTD/svg11.dtd"><svg t="1531883483582" class="icon" style="" viewBox="0 0 1024 1024" version="1.1" xmlns="http://www.w3.org/2000/svg" p-id="1056" xmlns:xlink="http://www.w3.org/1999/xlink" width="16" height="16"><defs><style type="text/css"></style></defs><path d="M321.193 111.757l-191.26 162.097 191.26 167.759z" fill="#93999f" p-id="1057"></path><path d="M705.312 225.659l-384.001 0.017v95.473l123.678 0.835v-0.135h260.322c25.151 0 48.937 9.935 66.976 27.974 18.041 18.039 27.974 41.826 27.974 66.976 0 25.151-9.934 48.937-27.974 66.976-18.039 18.039-41.826 27.974-66.976 27.974h-27.724v-0.182c-1.294-0.032-2.818-0.050-4.347-0.050l-352.166 0.001c-105.127 0-191.141 86.013-191.141 191.14v0.001c0 105.127 86.013 191.14 191.141 191.14h352.687l116.817 0.782c0.070 0 0.138 0.005 0.209 0.005 26.669 0 48.29-21.62 48.29-48.29 0-25.691-20.066-46.688-45.379-48.195l0.003-0.095-212.304-0.397h-260.322c-25.151 0-48.937-9.935-66.976-27.974-18.041-18.039-27.974-41.826-27.974-66.976 0-25.151 9.934-48.937 27.974-66.976 18.039-18.039 41.826-27.974 66.976-27.974h27.724v0.182c1.273 0.026 2.547 0.049 3.826 0.049h352.687c105.127 0 191.141-86.013 191.141-191.14v-0.001c0-105.126-86.013-191.14-191.14-191.14z" fill="#93999f" p-id="1058"></path></svg>