<?xml version="1.0" standalone="no"?><!DOCTYPE svg PUBLIC "-//W3C//DTD SVG 1.1//EN" "http://www.w3.org/Graphics/SVG/1.1/DTD/svg11.dtd"><svg t="1495263762450" class="icon" style="" viewBox="0 0 1025 1024" version="1.1" xmlns="http://www.w3.org/2000/svg" p-id="25398" xmlns:xlink="http://www.w3.org/1999/xlink" width="64.0625" height="64"><defs><style type="text/css"></style></defs><path d="M838.129956 73.130604c-18.244053 0-33.170095-14.931761-33.170095-33.175814l0-6.778977c0-18.249771-14.931761-33.175814-33.175814-33.175814l-6.819004 0c-18.249771 0-33.175814 14.926043-33.175814 33.175814l0 6.778977c0 18.244053-14.926043 33.175814-33.175814 33.175814L325.778284 73.130604c-18.244053 0-33.170095-14.931761-33.170095-33.175814l0-6.778977c0-18.249771-14.93319-33.175814-33.175814-33.175814l-6.819004 0c-18.244053 0-33.175814 14.926043-33.175814 33.175814l0 6.778977c0 18.244053-14.926043 33.175814-33.175814 33.175814L33.175814 73.130604c-18.249771 0-33.175814 14.927472-33.175814 33.175814l0 884.523487c0 18.244053 14.926043 33.170095 33.175814 33.170095l957.716992 0c18.244053 0 33.170095-14.926043 33.170095-33.170095l0-884.530635c0-18.242623-14.926043-33.170095-33.170095-33.170095L838.129956 73.129174 838.129956 73.130604zM950.942304 917.739329c0 18.244053-14.926043 33.170095-33.170095 33.170095l-811.454355 0c-18.244053 0-33.175814-14.926043-33.175814-33.170095l0-738.283723c0-18.244053 14.931761-33.170095 33.175814-33.170095l79.949608 0c18.244053 0 33.175814 14.926043 33.175814 33.170095l0 79.97677c0 18.244053 14.926043 33.175814 33.170095 33.175814l6.819004 0c18.248341 0 33.175814-14.931761 33.175814-33.175814l0-79.97677c0-18.244053 14.926043-33.170095 33.175814-33.170095l372.835131 0c18.244053 0 33.170095 14.926043 33.170095 33.170095l0 79.97677c0 18.244053 14.931761 33.175814 33.175814 33.175814l6.819004 0c18.249771 0 33.175814-14.931761 33.175814-33.175814l0-79.97677c0-18.244053 14.926043-33.170095 33.175814-33.170095l79.636534 0c18.244053 0 33.175814 14.926043 33.175814 33.170095l0 738.283723L950.942304 917.739329zM626.639326 808.812527M670.578302 476.722732l0 272.375617c-1.36523 21.692153 0 42.685251 4.06567 63.012174l-52.849427 0c2.70044-10.863231 4.06567-25.091648 4.06567-42.685251L404.301191 769.425272c-1.36666 16.261252 0 30.489669 4.06567 42.685251L355.517434 812.110523c1.33378-6.797561 2.032835-14.228417 2.032835-22.359758 1.33378-5.430901 2.032835-19.626438 2.032835-42.685251L359.583104 472.657062c0-33.856284-1.36666-58.946503-4.06567-75.207755 13.529362 4.06567 41.320021 5.430901 83.339096 4.06567l142.285599 0c23.025933 0 54.181778-1.33378 93.501843-4.06567C670.578302 409.644888 669.213072 436.068887 670.578302 476.722732zM404.301191 440.134557l0 126.024347 221.559025 0L625.860216 440.134557 404.301191 440.134557zM404.301191 604.779915l0 128.057182 221.559025 0 0-128.057182L404.301191 604.779915z" p-id="25399"></path></svg>