<?xml version="1.0" standalone="no"?><!DOCTYPE svg PUBLIC "-//W3C//DTD SVG 1.1//EN" "http://www.w3.org/Graphics/SVG/1.1/DTD/svg11.dtd"><svg t="1495261115866" class="icon" style="" viewBox="0 0 1024 1024" version="1.1" xmlns="http://www.w3.org/2000/svg" p-id="2344" xmlns:xlink="http://www.w3.org/1999/xlink" width="64" height="64"><defs><style type="text/css"></style></defs><path d="M647.314286 537.6v173.714286c0 62.171429-3.657143 111.542857-10.971429 148.114285-10.971429 47.542857-32.914286 89.6-65.828571 124.342858 12.8 9.142857 23.771429 20.114286 34.742857 29.257142 42.057143-51.2 67.657143-109.714286 74.971428-173.714285h259.657143v82.285714c0 25.6-12.8 40.228571-40.228571 40.228571-18.285714 0-42.057143-1.828571-73.142857-3.657142 3.657143 16.457143 5.485714 29.257143 7.314285 42.057142 31.085714 0 56.685714 1.828571 76.8 1.828572 47.542857 0 71.314286-23.771429 71.314286-73.142857V537.6H647.314286z m292.571428 265.142857h-256c1.828571-31.085714 3.657143-62.171429 3.657143-96.914286h252.342857v96.914286z m0-133.485714H689.371429v-95.085714h252.342857v95.085714z" p-id="2345"></path><path d="M352.914286 358.4h18.285714v73.142857h-18.285714z" p-id="2346"></path><path d="M352.914286 504.685714h18.285714v73.142857h-18.285714z" p-id="2347"></path><path d="M352.914286 632.685714h18.285714v73.142857h-18.285714z" p-id="2348"></path><path d="M663.771429 358.4h18.285714v73.142857h-18.285714z" p-id="2349"></path><path d="M499.2 468.114286h73.142857v18.285714h-73.142857z" p-id="2350"></path><path d="M389.485714 468.114286h73.142857v18.285714h-73.142857z" p-id="2351"></path><path d="M261.485714 468.114286h73.142857v18.285714h-73.142857z" p-id="2352"></path><path d="M133.485714 468.114286h73.142857v18.285714h-73.142857z" p-id="2353"></path><path d="M608.914286 468.114286h36.571428v18.285714h-36.571428z" p-id="2354"></path><path d="M288.914286 138.971429h146.285714c5.485714 0 9.142857-3.657143 9.142857-9.142858s-3.657143-9.142857-9.142857-9.142857h-146.285714c-5.485714 0-9.142857 3.657143-9.142857 9.142857 0 3.657143 3.657143 9.142857 9.142857 9.142858z" p-id="2355"></path><path d="M599.771429 138.971429h146.285714c5.485714 0 9.142857-3.657143 9.142857-9.142858s-3.657143-9.142857-9.142857-9.142857h-146.285714c-5.485714 0-9.142857 3.657143-9.142858 9.142857 0 3.657143 3.657143 9.142857 9.142858 9.142858z" p-id="2356"></path><path d="M480.914286 742.4h-365.714286c-20.114286 0-36.571429-16.457143-36.571429-36.571429v-475.428571h274.285715v73.142857h18.285714v-73.142857h292.571429v73.142857h18.285714v-73.142857h256v219.428571c0 10.971429 7.314286 18.285714 18.285714 18.285715s18.285714-7.314286 18.285714-18.285715v-365.714285c0-40.228571-32.914286-73.142857-73.142857-73.142857h-786.285714c-40.228571 0-73.142857 32.914286-73.142857 73.142857v621.714285c0 40.228571 32.914286 73.142857 73.142857 73.142858h365.714286c10.971429 0 18.285714-7.314286 18.285714-18.285715s-7.314286-18.285714-18.285714-18.285714z m-365.714286-694.857143h786.285714c20.114286 0 36.571429 16.457143 36.571429 36.571429v128h-859.428572v-128c0-20.114286 16.457143-36.571429 36.571429-36.571429z" p-id="2357"></path></svg>