<?xml version="1.0" standalone="no"?><!DOCTYPE svg PUBLIC "-//W3C//DTD SVG 1.1//EN" "http://www.w3.org/Graphics/SVG/1.1/DTD/svg11.dtd"><svg t="1495262068030" class="icon" style="" viewBox="0 0 1024 1024" version="1.1" xmlns="http://www.w3.org/2000/svg" p-id="24732" xmlns:xlink="http://www.w3.org/1999/xlink" width="64" height="64"><defs><style type="text/css"></style></defs><path d="M53.333333 938.666667 53.333333 85.333333 970.666667 85.333333 970.666667 938.666667 53.333333 938.666667ZM906.666667 149.333333 117.333333 149.333333 117.333333 874.666667 906.666667 874.666667 906.666667 149.333333ZM309.333333 362.666667 245.333333 362.666667 245.333333 298.666667 309.333333 298.666667 309.333333 362.666667ZM309.333333 533.333333 245.333333 533.333333 245.333333 469.333333 309.333333 469.333333 309.333333 533.333333ZM309.333333 704 245.333333 704 245.333333 640 309.333333 640 309.333333 704ZM778.666667 362.666667 373.333333 362.666667 373.333333 298.666667 778.666667 298.666667 778.666667 362.666667ZM778.666667 533.333333 373.333333 533.333333 373.333333 469.333333 778.666667 469.333333 778.666667 533.333333ZM778.666667 704 373.333333 704 373.333333 640 778.666667 640 778.666667 704Z" p-id="24733"></path></svg>