<?xml version="1.0" standalone="no"?><!DOCTYPE svg PUBLIC "-//W3C//DTD SVG 1.1//EN" "http://www.w3.org/Graphics/SVG/1.1/DTD/svg11.dtd"><svg t="1495261912253" class="icon" style="" viewBox="0 0 1024 1024" version="1.1" xmlns="http://www.w3.org/2000/svg" p-id="22951" xmlns:xlink="http://www.w3.org/1999/xlink" width="64" height="64"><defs><style type="text/css"></style></defs><path d="M363.681 67.041c41.714 0 74.16 32.445 74.16 74.16v222.479c0 41.714-32.445 74.16-74.16 74.16h-222.479c-41.714 0-74.16-32.445-74.16-74.16v-222.479c0-41.714 32.445-74.16 74.16-74.16h222.479M363.681 29.962h-222.479c-64.891 0-115.873 50.986-115.873 111.241v222.479c0 64.891 50.986 115.873 115.873 115.873h222.479c64.891 0 115.873-50.986 115.873-115.873v-222.479c0-60.255-50.986-111.241-115.873-111.241zM887.434 479.555h-222.479c-64.891 0-115.873-50.986-115.873-115.873v-222.479c0-64.891 50.986-115.873 115.873-115.873h222.479c64.891 0 115.873 50.986 115.873 115.873v222.479c-4.636 64.891-55.619 115.873-115.873 115.873zM363.681 581.524c41.714 0 74.16 32.445 74.16 74.16v222.479c0 41.714-32.445 74.16-74.16 74.16h-222.479c-41.714 0-74.16-32.445-74.16-74.16v-222.479c0-41.714 32.445-74.16 74.16-74.16h222.479M363.681 544.445h-222.479c-64.891 0-115.873 50.986-115.873 115.873v222.479c0 64.891 50.986 115.873 115.873 115.873h222.479c64.891 0 115.873-50.986 115.873-115.873v-222.479c0-64.891-50.986-115.873-115.873-115.873zM887.434 581.524c41.714 0 74.16 32.445 74.16 74.16v222.479c0 41.714-32.445 74.16-74.16 74.16h-222.479c-41.714 0-74.16-32.445-74.16-74.16v-222.479c0-41.714 32.445-74.16 74.16-74.16h222.479M887.434 544.445h-222.479c-64.891 0-115.873 50.986-115.873 115.873v222.479c0 64.891 50.986 115.873 115.873 115.873h222.479c64.891 0 115.873-50.986 115.873-115.873v-222.479c-4.636-64.891-55.619-115.873-115.873-115.873z" p-id="22952"></path></svg>