<?xml version="1.0" standalone="no"?><!DOCTYPE svg PUBLIC "-//W3C//DTD SVG 1.1//EN" "http://www.w3.org/Graphics/SVG/1.1/DTD/svg11.dtd"><svg t="1495261200147" class="icon" style="" viewBox="0 0 1024 1024" version="1.1" xmlns="http://www.w3.org/2000/svg" p-id="3005" xmlns:xlink="http://www.w3.org/1999/xlink" width="64" height="64"><defs><style type="text/css"></style></defs><path d="M633.856 430.223719l-146.683509 358.50779h-49.11607l139.425684-333.105404h-187.374035v-41.87621h243.74793v16.473824zM820.906667 96.238035c-17.300211 0-31.438596-14.138386-31.438597-31.438596V58.385965c0-17.300211-14.138386-31.438596-31.420631-31.438597h-6.467369c-17.282246 0-31.420632 14.138386-31.420631 31.438597v6.413474c0 17.300211-14.138386 31.438596-31.420632 31.438596H335.566596c-17.282246 0-31.438596-14.138386-31.438596-31.438596V58.385965c0-17.300211-14.138386-31.438596-31.420632-31.438597h-6.467368c-17.282246 0-31.420632 14.138386-31.420632 31.438597v6.413474c0 17.300211-14.138386 31.438596-31.438596 31.438596H58.368c-17.282246 0-31.420632 14.138386-31.420632 31.438597V965.614035c0 17.300211 14.138386 31.438596 31.420632 31.438597H965.614035c17.300211 0 31.438596-14.138386 31.438597-31.438597V127.676632c0-17.300211-14.138386-31.438596-31.438597-31.438597h-144.707368z m106.891228 800.139228c0 17.300211-14.156351 31.438596-31.438597 31.438597H127.658667a31.510456 31.510456 0 0 1-31.420632-31.438597V196.949333c0-17.282246 14.138386-31.420632 31.420632-31.420631h75.74007c17.282246 0 31.438596 14.138386 31.438596 31.420631v75.776c0 17.282246 14.138386 31.420632 31.420632 31.420632h6.449403c17.300211 0 31.438596-14.138386 31.438597-31.420632v-75.776c0-17.282246 14.138386-31.420632 31.420631-31.420631h353.172211c17.282246 0 31.420632 14.138386 31.420632 31.420631v75.776c0 17.282246 14.156351 31.420632 31.438596 31.420632h6.449404c17.300211 0 31.438596-14.138386 31.438596-31.420632v-75.776c0-17.282246 14.138386-31.420632 31.420632-31.420631h75.452631c17.282246 0 31.420632 14.138386 31.420632 31.420631l0.017965 699.42793z" p-id="3006"></path></svg>