<?xml version="1.0" encoding="utf-8"?>
<!-- Generator: Adobe Illustrator 19.1.0, SVG Export Plug-In . SVG Version: 6.00 Build 0)  -->
<svg version="1.1" xmlns="http://www.w3.org/2000/svg" xmlns:xlink="http://www.w3.org/1999/xlink" x="0px" y="0px" width="24px"
	 height="24px" viewBox="0 0 24 24" enable-background="new 0 0 24 24" xml:space="preserve">
<g id="Bounding_Boxes">
	<g id="ui_x5F_spec_x5F_header_copy_3">
	</g>
	<path fill="none" d="M0,0h24v24H0V0z"/>
</g>
<g id="Outline">
	<g id="ui_x5F_spec_x5F_header">
	</g>
	<g>
		<path d="M12,1L3,5v6c0,5.55,3.84,10.74,9,12c5.16-1.26,9-6.45,9-12V5L12,1z M19,11c0,4.52-2.98,8.69-7,9.93
			C7.98,19.69,5,15.52,5,11V6.3l7-3.11l7,3.11V11z"/>
		<polygon points="7.41,11.59 6,13 10,17 18,9 16.59,7.58 10,14.17 		"/>
	</g>
</g>
</svg>
