<?xml version="1.0" standalone="no"?><!DOCTYPE svg PUBLIC "-//W3C//DTD SVG 1.1//EN" "http://www.w3.org/Graphics/SVG/1.1/DTD/svg11.dtd"><svg t="1494743193840" class="icon" style="" viewBox="0 0 1024 1024" version="1.1" xmlns="http://www.w3.org/2000/svg" p-id="2349" xmlns:xlink="http://www.w3.org/1999/xlink" width="200" height="200"><defs><style type="text/css"></style></defs><path d="M608 735.984c0 8.848 7.152 16 16 16 8.832 0 16-7.152 16-16l0-320c0-8.832-7.168-16-16-16-8.848 0-16 7.168-16 16L608 735.984z" p-id="2350"></path><path d="M896 255.984l-25.152 0L816 255.984l-32 0-96 0 0-48c0-12.352-4.8-23.488-12.448-32-8.8-9.744-21.392-16-35.552-16L416 159.984c-14.16 0-26.752 6.256-35.552 16-7.664 8.512-12.464 19.648-12.464 32l0 48-96 0-32 0-61.712 0L160 255.984c-8.848 0-16 7.152-16 16 0 8.832 7.168 16 16 16l80 0 0 544.064c0 53.008 26.992 80 80 80l416 0c52.992 0 80-26.992 80-80L816 287.984l80 0c8.816 0 16-7.152 16-16S904.816 255.984 896 255.984zM400 223.984c0-17.68 14.32-32 32-32l192 0c17.664 0 32 14.32 32 32l0 32L400 255.984 400 223.984zM784 831.984c0 35.344-12.672 48-48 48L320 879.984c-35.344 0-48-12.656-48-48l0-544 512 0L784 831.984z" p-id="2351"></path><path d="M416 735.984c0 8.848 7.168 16 16 16 8.832 0 16-7.152 16-16l0-320c0-8.832-7.168-16-16-16-8.832 0-16 7.168-16 16L416 735.984z" p-id="2352"></path></svg>