<?xml version="1.0" standalone="no"?><!DOCTYPE svg PUBLIC "-//W3C//DTD SVG 1.1//EN" "http://www.w3.org/Graphics/SVG/1.1/DTD/svg11.dtd"><svg t="1494305259806" class="icon" style="" viewBox="0 0 1024 1024" version="1.1" xmlns="http://www.w3.org/2000/svg" p-id="2808" xmlns:xlink="http://www.w3.org/1999/xlink" width="200" height="200"><defs><style type="text/css"></style></defs><path d="M514.260995 73.312726C275.49603 73.312726 81.919243 266.88849 81.919243 505.653455c0 75.15877 19.193131 145.830343 52.92642 207.404724 4.65502 16.510022 19.817348 28.616758 37.816281 28.616758 21.702278 0 39.298028-17.59575 39.298028-39.298028l-0.363274-3.64604c0-16.457834-10.112312-30.546713-24.469298-36.397978l6.03853-6.03853c-21.675672-45.862537-33.80185-97.120968-33.80185-151.21498 0-195.688891 158.632927-354.321818 354.320795-354.321818 195.685821 0 354.318748 158.632927 354.318748 354.321818 0 195.685821-158.63395 354.318748-354.318748 354.318748-77.110215 0-148.455123-24.648376-206.619848-66.473971-7.204076-8.770757-18.132986-14.366196-30.380938-14.366196-21.683858 0-39.297005 17.594727-39.297005 39.297005l0.363274 3.64604c0 17.492396 11.435447 32.30987 27.236318 37.402865 70.449515 49.808406 156.437935 79.092359 249.27432 79.092359 238.763942 0 432.340729-193.576787 432.340729-432.341752C946.601724 266.88849 753.024937 73.312726 514.260995 73.312726zM276.417005 504.349763c0 21.702278 17.59575 39.297005 39.297005 39.297005l159.471015-0.431835 0.429789 158.682046c0 21.701255 16.366759 39.295981 38.071084 39.295981 21.702278 0 39.298028-17.594727 39.298028-39.295981l0.061398-158.892847 159.300123-0.430812c21.701255 0 39.300075-16.367783 39.300075-38.07006 0-21.704324-17.59882-39.300075-39.300075-39.300075l-159.270447-0.061398 0.062422-159.875221c0-21.702278-17.594727-39.298028-39.298028-39.298028-21.704324 0-39.299051 17.59575-39.299051 39.298028l0.433882 159.844521-159.25919-0.061398C294.011732 465.049688 276.417005 482.645438 276.417005 504.349763z" p-id="2809" fill="#cdcdcd"></path></svg>