<?xml version="1.0" standalone="no"?><!DOCTYPE svg PUBLIC "-//W3C//DTD SVG 1.1//EN" "http://www.w3.org/Graphics/SVG/1.1/DTD/svg11.dtd"><svg t="1494656383312" class="icon" style="" viewBox="0 0 1024 1024" version="1.1" xmlns="http://www.w3.org/2000/svg" p-id="2152" xmlns:xlink="http://www.w3.org/1999/xlink" width="200" height="200"><defs><style type="text/css"></style></defs><path d="M984.821699 185.251168c-20.49273-21.367657-48.25605-33.135678-78.1765-33.135678-23.942295 0-48.471968 7.770987-69.17243 21.645996-9.912767-46.14497-56.228629-82.309634-99.499131-91.264587l-1.566682-0.274246c-6.385431-0.911766-13.251815-1.803066-20.796652-1.803065-28.661783 0-59.146075 10.860349-83.635839 29.795606-5.377474 4.157693-10.290367 8.562003-14.716166 13.175067-21.018709-28.885887-54.045917-49.672306-91.190909-53.880141-5.611811-1.001817-10.095939-1.001817-13.431917-1.001817-31.958876 0-64.62281 12.452613-89.617063 34.165124-11.867282 10.308787-21.395286 22.045085-28.348652 34.722826a128.626519 128.626519 0 0 0-1.941212-1.684362c-23.432689-19.926842-53.700039-31.355125-83.039251-31.355125-28.674063 0-58.602699 11.001565-82.111113 30.185486-25.829272 21.077038-40.642652 49.852408-40.642652 78.94705v76.388785c-18.361183-11.985986-39.756469-18.421558-62.020542-18.421559-28.704762 0-57.668421 11.326976-79.46382 31.07781-23.206538 21.028942-35.986609 48.76975-35.986609 78.112032v167.156044c0 29.469172 11.93482 57.633628 33.605376 79.305207l0.209777 0.209778 231.334739 220.856083c14.999622 15.092743 21.403472 32.402991 21.403473 57.819871 0 19.463284 7.66354 37.844933 21.580504 51.761897 13.915941 13.916964 32.298614 21.580504 51.761898 21.580504h477.617935c19.463284 0 37.844933-7.66354 51.760874-21.580504 13.916964-13.916964 21.580504-32.298614 21.580504-51.761897v-18.668175c0-18.090007 2.187829-35.100426 6.502088-50.55849l0.100284-0.361227 80.633458-325.391928c5.495154-19.832697 8.281617-41.342594 8.281617-63.940265v-183.591365c-0.00307-29.596062-11.016915-57.378825-31.015387-78.230735z m-20.152992 261.821077c0 18.090007-2.187829 35.100426-6.502088 50.559513l-0.100284 0.361227-80.632435 325.391928c-5.496178 19.832697-8.28264 41.34157-8.282641 63.939241v18.668175c0 12.020778-10.155291 22.177092-22.176068 22.177092h-477.617935c-12.020778 0-22.176069-10.156314-22.176069-22.177092 0-39.304168-11.624758-69.234851-36.583196-94.194312l-0.209778-0.209778L79.057567 590.735226c-11.886725-11.978822-18.428721-27.215852-18.428721-42.934859V380.644323c0-30.367635 30.640857-58.023508 64.285118-58.023508 32.41527 0 59.989279 25.551956 62.020542 56.586786v154.391323h51.16531V382.878201h0.119727c0-1.718131-0.039909-3.432169-0.119727-5.138021V213.488279c0-31.218002 39.36352-57.966203 71.588455-57.966203 34.881438 0 69.13866 27.839045 71.411423 57.125045v96.479355h51.16531v-93.40432h0.119727c0-1.549286-0.040932-3.100618-0.119727-4.647856v-21.465894c0-39.386032 43.202964-69.934792 80.369446-69.934793 2.373047 0 3.473101 0.010233 4.659113 0.24764l1.174755 0.235361 1.191129 0.12382c34.258245 3.571339 63.730487 31.308053 69.27783 63.09092a85.509513 85.509513 0 0 0-0.228198 6.238075h1.000794c0.10847 1.483794 0.163729 2.973728 0.163729 4.466731v115.050316h51.16531v-115.050316c0-3.63376-0.179079-7.249101-0.528026-10.831696 2.232854-11.30958 10.252505-22.881127 22.757306-32.550347 15.244192-11.786441 35.299971-19.108197 52.340066-19.108196 3.943822 0 8.260128 0.539282 12.715602 1.168615 27.875884 6.113231 59.917648 33.016974 59.917648 59.08877v54.633295a94.210685 94.210685 0 0 0-1.164522 14.772448h1.164522v47.879474h51.16531v-57.754379c3.351328-14.086833 13.186324-24.38948 19.510356-29.780257 13.45136-11.466146 31.292704-18.311041 47.727001-18.311041 32.537044 0 58.023508 26.443255 58.023508 60.200081v183.589318z" p-id="2153"></path></svg>