<?xml version="1.0" standalone="no"?><!DOCTYPE svg PUBLIC "-//W3C//DTD SVG 1.1//EN" "http://www.w3.org/Graphics/SVG/1.1/DTD/svg11.dtd"><svg t="1496847860175" class="icon" style="" viewBox="0 0 1024 1024" version="1.1" xmlns="http://www.w3.org/2000/svg" p-id="4952" xmlns:xlink="http://www.w3.org/1999/xlink" width="64" height="64"><defs><style type="text/css"></style></defs><path d="M509.952 955.3951c-246.0099 0-445.44-199.4342-445.44-445.4472 0-246.0058 199.4301-445.4369 445.44-445.4369 246.0129 0 445.44 199.4301 445.44 445.4369C955.392 755.9608 755.9649 955.3951 509.952 955.3951zM509.952 148.0356c-199.8828 0-361.9174 162.0378-361.9174 361.9133 0 93.4769 35.7417 178.3972 93.9131 242.6153 52.4206-25.3532 33.1725-4.2486 101.7518-32.4833 70.1778-28.8522 86.8035-38.912 86.8035-38.912l0.6656-66.4996c0 0-26.2902-19.9557-34.4535-82.5283-16.4485 4.7165-21.8798-19.1683-22.8516-34.3716-0.8765-14.6872-9.516-60.5665 10.5482-56.4275-4.1052-30.633-7.0482-58.2564-5.6074-72.8965 5.0299-51.3782 54.8854-105.0522 131.6844-108.9679 90.3291 3.9076 126.1076 57.556 131.1242 108.927 1.4694 14.6412-1.7531 42.2902-5.8655 72.8699 20.0765-4.0847 11.35 41.7188 10.3711 56.407-0.8827 15.2115-6.4348 39.0144-22.8434 34.2958-8.1981 62.5725-34.4873 82.3788-34.4873 82.3788l0.6185 66.1545c0 0 16.6185 9.4198 86.8024 38.273 68.5814 28.2266 49.3251 8.3743 101.7416 33.7869 58.1755-64.2243 93.9203-149.1436 93.9203-242.6214C871.8715 310.0723 709.8348 148.0356 509.952 148.0356z" p-id="4953"></path></svg>